<?xml version="1.0" encoding="UTF-8"?>
<svg width="22px" height="25px" viewBox="0 0 22 25" version="1.1" xmlns="http://www.w3.org/2000/svg" xmlns:xlink="http://www.w3.org/1999/xlink">
    <!-- Generator: Sketch 54.1 (76490) - https://sketchapp.com -->
    <title>icon/play</title>
    <desc>Created with Sketch.</desc>
    <g id="Page-1" stroke="none" stroke-width="1" fill="none" fill-rule="evenodd">
        <g id="Heatmap-UI-new" transform="translate(-127.000000, -895.000000)" fill="#FFFFFF" fill-rule="nonzero">
            <g id="icon/play" transform="translate(127.000000, 895.000000)">
                <path d="M1.65528467,0.92888978 C1.26045004,0.703388959 0.833333333,0.890893304 0.833333333,1.34519899 L0.833333333,22.8214677 C0.833333333,23.2757734 1.26045004,23.4632777 1.65528467,23.2377769 L20.5494047,12.4930345 C20.9450671,12.2675336 20.9185793,11.899133 20.5237446,11.6736322 L1.65528467,0.92888978 Z" id="Path"></path>
                <path d="M1.31270466,24.1666667 L1.31270466,24.1666667 C0.564007492,24.1666667 0,23.5906008 0,22.8277474 L0,1.33891929 C0,0.576065891 0.564007492,0 1.31270466,0 C1.56861996,0 1.82701986,0.070251938 2.06140183,0.20497036 L20.9395028,10.9551699 C21.4024693,11.2188212 21.6666667,11.6353739 21.6666667,12.0973837 C21.6666667,12.5503021 21.4107514,12.9561104 20.9651772,13.2106703 L2.06057363,23.9625228 C1.82701986,24.0955882 1.56861996,24.1666667 1.31270466,24.1666667 Z M1.65640967,1.87696648 L1.65640967,22.2897002 L19.5911854,12.0907718 L1.65640967,1.87696648 Z" id="Shape"></path>
            </g>
        </g>
    </g>
</svg>