<?xml version="1.0" encoding="UTF-8"?>
<svg width="25px" height="25px" viewBox="0 0 25 25" version="1.1" xmlns="http://www.w3.org/2000/svg" xmlns:xlink="http://www.w3.org/1999/xlink">
    <!-- Generator: Sketch 54.1 (76490) - https://sketchapp.com -->
    <title>icon/prev</title>
    <desc>Created with Sketch.</desc>
    <g id="Page-1" stroke="none" stroke-width="1" fill="none" fill-rule="evenodd">
        <g id="Heatmap-UI-new" transform="translate(-50.000000, -895.000000)" fill="#A0A0A0" fill-rule="nonzero">
            <g id="icon/prev" transform="translate(62.500000, 907.500000) scale(-1, 1) translate(-62.500000, -907.500000) translate(50.000000, 895.000000)">
                <path d="M1.40766141,1.99582642 C1.0617056,1.63889675 0.892857143,1.7477603 0.892857143,2.23853859 L0.892857143,23.6543186 C0.892857143,24.1450968 1.0617056,24.2539604 1.40766141,23.8970307 L11.3330143,13.5960406 C11.6789701,13.2391109 11.7074174,12.6537462 11.3614615,12.2968166 L1.40766141,1.99582642 Z" id="Path"></path>
                <path d="M1.09898112,25 L1.09898112,25 C0.986522988,25 0,24.9625194 0,23.6551616 L0,2.23769553 C0,0.930337708 0.986522988,0.892857143 1.09898112,0.892857143 C1.61829999,0.892857143 1.97487456,1.26230843 2.09281846,1.38367407 L12.0110774,11.6863677 C12.6739404,12.3735114 12.6611403,13.5050675 11.9827343,14.2082743 L2.09373275,24.5082907 C1.97487456,24.6314411 1.61921428,25 1.09898112,25 Z M1.83224473,3.71907027 L1.82858756,22.1711097 L10.6734656,12.9000241 L1.83224473,3.71907027 Z" id="Shape"></path>
                <path d="M13.0148043,1.99582642 C12.6688485,1.63889675 12.5,1.7477603 12.5,2.23853859 L12.5,23.6543186 C12.5,24.1450968 12.6688485,24.2539604 13.0148043,23.8970307 L22.9401571,13.5960406 C23.2861129,13.2391109 23.3145602,12.6537462 22.9686044,12.2968166 L13.0148043,1.99582642 Z" id="Path"></path>
                <path d="M12.706124,25 L12.706124,25 C12.5936658,25 11.6071429,24.9625194 11.6071429,23.6551616 L11.6071429,2.23769553 C11.6071429,0.930337708 12.5936658,0.892857143 12.706124,0.892857143 C13.2254428,0.892857143 13.5820174,1.26230843 13.6999613,1.38367407 L23.6182202,11.6863677 C24.2810832,12.3735114 24.2682831,13.5050675 23.5898771,14.2082743 L13.7008756,24.5082907 C13.5820174,24.6314411 13.2263571,25 12.706124,25 Z M13.4393876,3.71907027 L13.4357304,22.1711097 L22.2806084,12.9000241 L13.4393876,3.71907027 Z" id="Shape"></path>
            </g>
        </g>
    </g>
</svg>